<svg width="96" height="82" viewBox="0 0 96 82" fill="none" xmlns="http://www.w3.org/2000/svg">
<g filter="url(#filter0_d)">
<mask id="path-1-outside-1" maskUnits="userSpaceOnUse" x="4" y="0" width="88" height="74" fill="black">
<rect fill="white" x="4" width="88" height="74"/>
<path fill-rule="evenodd" clip-rule="evenodd" d="M50.5192 17.4951L63.9165 45.8097H32.0238L45.4367 17.5109C45.4448 17.4945 45.453 17.4781 45.4612 17.4617C46.2008 17.4189 46.9542 17.3976 47.7216 17.3976C48.6763 17.3976 49.6088 17.4301 50.5192 17.4951ZM63.3502 21.3953C61.835 20.4486 60.1623 19.6605 58.3319 19.031C55.9393 18.2081 53.3351 17.6961 50.5192 17.4951L50.5037 17.4623C50.1063 16.6195 49.689 15.647 49.2519 14.5448C48.8147 13.4103 48.3974 12.2109 48 10.9467C47.1732 13.5478 46.327 15.7195 45.4612 17.4617C42.4673 17.6346 39.7008 18.1577 37.1618 19.031C35.6219 19.5605 34.1897 20.2024 32.8649 20.9565L37.5497 11.4003C40.7236 10.7076 44.1143 10.3613 47.7216 10.3613C51.5672 10.3613 55.1667 10.7549 58.5199 11.5422L63.3502 21.3953ZM73.379 41.8527L63.3502 21.3953C64.4561 22.0863 65.478 22.8618 66.416 23.7218C68.6391 25.7322 70.357 28.2033 71.5696 31.135C72.7822 34.0668 73.3885 37.3755 73.3885 41.0612C73.3885 41.327 73.3853 41.5908 73.379 41.8527ZM79.9569 55.2706C80.2793 54.6806 80.5824 54.0766 80.8662 53.4585C82.5841 49.689 83.443 45.5566 83.443 41.0612C83.443 36.5658 82.5841 32.4474 80.8662 28.7058C79.1484 24.9364 76.7232 21.6975 73.5906 18.9891C70.458 16.2528 66.6855 14.1307 62.2729 12.6229C61.0582 12.2047 59.8072 11.8444 58.5199 11.5422L53.842 2H42.158L37.5497 11.4003C36.0409 11.7296 34.5811 12.1371 33.1703 12.6229C28.7914 14.1307 25.0357 16.2528 21.9031 18.9891C18.7705 21.6975 16.3453 24.9364 14.6274 28.7058C12.9096 32.4474 12.0506 36.5658 12.0506 41.0612C12.0506 45.5566 12.9096 49.689 14.6274 53.4585C14.9891 54.2462 15.3822 55.0111 15.8066 55.7531L8 71.6774H16.9419C17.9354 71.6774 18.77 71.4505 19.4456 70.9967C20.1212 70.5429 20.5782 70.0242 20.8167 69.4407L23.2794 64.254C26.1181 66.43 29.415 68.1646 33.1703 69.4576C37.5491 70.9375 42.3996 71.6774 47.7216 71.6774C53.0436 71.6774 57.894 70.9375 62.2729 69.4576C66.2031 68.1147 69.6256 66.2954 72.5404 64L75.1237 69.4407C75.4416 70.089 75.9185 70.6239 76.5544 71.0453C77.1903 71.4667 78.0248 71.6774 79.0581 71.6774H88L79.9569 55.2706ZM68.7053 55.923C69.8573 54.4467 70.812 52.8015 71.5696 50.9874C72.6947 48.267 73.2979 45.2221 73.379 41.8527L79.9569 55.2706C78.3277 58.2515 76.2056 60.8724 73.5906 63.1333C73.2482 63.4294 72.8981 63.7183 72.5404 64L68.7053 55.923ZM27.0499 56.313L23.2794 64.254C22.808 63.8926 22.3492 63.5191 21.9031 63.1333C19.4301 60.9952 17.3979 58.5351 15.8066 55.7531L22.1068 42.9015C22.2774 45.8568 22.8663 48.5521 23.8736 50.9874C24.6985 52.9629 25.7573 54.7381 27.0499 56.313ZM27.0499 56.313L28.8048 52.617H67.1356L68.7053 55.923C68.0134 56.8098 67.2503 57.6357 66.416 58.4006C64.1929 60.411 61.4982 61.9606 58.3319 63.0496C55.1657 64.1106 51.6289 64.6411 47.7216 64.6411C43.848 64.6411 40.328 64.1106 37.1618 63.0496C33.9955 61.9606 31.284 60.411 29.0272 58.4006C28.3164 57.749 27.6573 57.0531 27.0499 56.313ZM22.1068 42.9015C22.0721 42.2989 22.0547 41.6854 22.0547 41.0612C22.0547 37.3755 22.661 34.0668 23.8736 31.135C25.0862 28.2033 26.8041 25.7322 29.0272 23.7218C30.1864 22.6748 31.4657 21.753 32.8649 20.9565L22.1068 42.9015Z"/>
</mask>
<path d="M63.9165 45.8097V47.8097H67.0754L65.7244 44.9543L63.9165 45.8097ZM32.0238 45.8097L30.2166 44.9531L28.8626 47.8097H32.0238V45.8097ZM45.4367 17.5109L43.6475 16.6171L43.6382 16.6356L43.6294 16.6543L45.4367 17.5109ZM58.3319 19.031L58.9824 17.1397L58.9824 17.1397L58.3319 19.031ZM50.5037 17.4623L48.6948 18.3153L48.6959 18.3178L50.5037 17.4623ZM49.2519 14.5448L47.3856 15.2639L47.3891 15.2731L47.3928 15.2822L49.2519 14.5448ZM48 10.9467L49.908 10.3469L48.0105 4.31114L46.094 10.3409L48 10.9467ZM37.1618 19.031L36.5113 17.1397L36.5113 17.1397L37.1618 19.031ZM66.416 23.7218L65.0644 25.196L65.0745 25.2052L66.416 23.7218ZM71.5696 31.135L69.7214 31.8995L69.7214 31.8995L71.5696 31.135ZM80.8662 53.4585L82.6838 54.293L82.6862 54.2879L80.8662 53.4585ZM80.8662 28.7058L79.0463 29.5353L79.0487 29.5404L80.8662 28.7058ZM73.5906 18.9891L72.2748 20.4954L72.2825 20.502L73.5906 18.9891ZM62.2729 12.6229L61.6218 14.514L61.6262 14.5155L62.2729 12.6229ZM53.842 2L55.6379 1.11964L55.089 0H53.842V2ZM42.158 2V0H40.911L40.3622 1.11964L42.158 2ZM33.1703 12.6229L32.5191 10.7319L32.5191 10.7319L33.1703 12.6229ZM21.9031 18.9891L23.2112 20.502L23.2188 20.4954L21.9031 18.9891ZM14.6274 28.7058L16.445 29.5404L16.4473 29.5352L14.6274 28.7058ZM14.6274 53.4585L12.8075 54.2879L12.8099 54.293L14.6274 53.4585ZM8 71.6774L6.20418 70.797L4.79214 73.6774H8V71.6774ZM19.4456 70.9967L18.3304 69.3365L18.3304 69.3365L19.4456 70.9967ZM20.8167 69.4407L19.01 68.5829L18.9863 68.6329L18.9653 68.6841L20.8167 69.4407ZM33.1703 69.4576L32.5191 71.3487L32.5299 71.3523L33.1703 69.4576ZM62.2729 69.4576L62.9132 71.3524L62.9196 71.3502L62.2729 69.4576ZM75.1237 69.4407L73.317 70.2986L73.3224 70.31L73.328 70.3213L75.1237 69.4407ZM76.5544 71.0453L75.4495 72.7124L75.4496 72.7124L76.5544 71.0453ZM88 71.6774V73.6774H91.2079L89.7958 70.797L88 71.6774ZM71.5696 50.9874L73.4151 51.7581L73.4177 51.7518L71.5696 50.9874ZM73.5906 63.1333L74.8987 64.6463L74.8987 64.6463L73.5906 63.1333ZM21.9031 63.1333L20.595 64.6463L20.595 64.6463L21.9031 63.1333ZM23.8736 50.9874L22.0254 51.7518L22.028 51.7581L23.8736 50.9874ZM28.8048 52.617V50.617H27.5404L26.9981 51.7592L28.8048 52.617ZM67.1356 52.617L68.9423 51.7592L68.4 50.617H67.1356V52.617ZM66.416 58.4006L67.7575 59.8841L67.7676 59.8748L66.416 58.4006ZM58.3319 63.0496L58.9674 64.9459L58.9749 64.9434L58.9824 64.9408L58.3319 63.0496ZM37.1618 63.0496L36.5113 64.9408L36.5188 64.9434L36.5263 64.9459L37.1618 63.0496ZM29.0272 58.4006L27.6756 59.8748L27.6861 59.8845L27.6968 59.894L29.0272 58.4006ZM23.8736 31.135L25.7217 31.8995L25.7217 31.8995L23.8736 31.135ZM29.0272 23.7218L27.6866 22.2376L27.6857 22.2384L29.0272 23.7218ZM65.7244 44.9543L52.3271 16.6397L48.7114 18.3505L62.1087 46.6651L65.7244 44.9543ZM32.0238 47.8097H63.9165V43.8097H32.0238V47.8097ZM43.6294 16.6543L30.2166 44.9531L33.8311 46.6663L47.2439 18.3675L43.6294 16.6543ZM43.67 16.5719C43.6627 16.5866 43.6552 16.6016 43.6475 16.6171L47.2258 18.4046C47.2345 18.3874 47.2433 18.3696 47.2524 18.3514L43.67 16.5719ZM47.7216 15.3976C46.9171 15.3976 46.1252 15.42 45.3458 15.465L45.5765 19.4583C46.2764 19.4179 46.9914 19.3976 47.7216 19.3976V15.3976ZM50.6617 15.5001C49.7017 15.4316 48.7216 15.3976 47.7216 15.3976V19.3976C48.6309 19.3976 49.5159 19.4285 50.3768 19.49L50.6617 15.5001ZM64.41 19.6992C62.7561 18.6658 60.9443 17.8144 58.9824 17.1397L57.6815 20.9222C59.3802 21.5065 60.914 22.2314 62.2904 23.0915L64.41 19.6992ZM58.9824 17.1397C56.4079 16.2543 53.6309 15.7121 50.6617 15.5001L50.3768 19.49C53.0392 19.6801 55.4706 20.1619 57.6815 20.9222L58.9824 17.1397ZM52.327 16.6395L52.3115 16.6067L48.6959 18.3178L48.7115 18.3506L52.327 16.6395ZM52.3127 16.6093C51.9372 15.813 51.5366 14.8805 51.111 13.8074L47.3928 15.2822C47.8415 16.4135 48.2754 17.4259 48.6948 18.3153L52.3127 16.6093ZM51.1181 13.8257C50.6974 12.7338 50.2938 11.5745 49.908 10.3469L46.0921 11.5465C46.501 12.8474 46.932 14.0868 47.3856 15.2639L51.1181 13.8257ZM46.094 10.3409C45.2869 12.8801 44.4763 14.9494 43.6702 16.5716L47.2522 18.3517C48.1776 16.4896 49.0596 14.2156 49.906 11.5526L46.094 10.3409ZM45.3458 15.465C42.1906 15.6473 39.2419 16.2006 36.5113 17.1397L37.8122 20.9222C40.1597 20.1149 42.744 19.622 45.5765 19.4583L45.3458 15.465ZM36.5113 17.1397C34.8619 17.707 33.3153 18.3988 31.8755 19.2184L33.8544 22.6946C35.0641 22.006 36.382 21.4141 37.8122 20.9222L36.5113 17.1397ZM34.6607 21.8369L39.3455 12.2807L35.7538 10.52L31.0691 20.0761L34.6607 21.8369ZM37.9761 13.3543C40.9956 12.6953 44.2421 12.3613 47.7216 12.3613V8.36127C43.9864 8.36127 40.4517 8.71989 37.1232 9.44631L37.9761 13.3543ZM47.7216 12.3613C51.4309 12.3613 54.8756 12.741 58.0628 13.4892L58.977 9.59513C55.4578 8.76888 51.7036 8.36127 47.7216 8.36127V12.3613ZM56.7241 12.4226L61.5544 22.2757L65.146 20.515L60.3157 10.6618L56.7241 12.4226ZM61.5544 22.2757L71.5832 42.7331L75.1748 40.9723L65.146 20.515L61.5544 22.2757ZM67.7676 22.2476C66.7371 21.3029 65.6172 20.4535 64.41 19.6992L62.2904 23.0915C63.295 23.7192 64.2189 24.4208 65.0644 25.196L67.7676 22.2476ZM73.4177 30.3706C72.0985 27.181 70.2135 24.4594 67.7574 22.2384L65.0745 25.2052C67.0647 27.0049 68.6155 29.2256 69.7214 31.8995L73.4177 30.3706ZM75.3885 41.0612C75.3885 37.1552 74.7455 33.5807 73.4177 30.3706L69.7214 31.8995C70.8189 34.5529 71.3885 37.5959 71.3885 41.0612H75.3885ZM75.3784 41.9008C75.3851 41.6227 75.3885 41.3428 75.3885 41.0612H71.3885C71.3885 41.3112 71.3855 41.559 71.3796 41.8046L75.3784 41.9008ZM79.0487 52.6239C78.784 53.2003 78.5018 53.7628 78.2019 54.3114L81.7119 56.2298C82.0569 55.5985 82.3808 54.9529 82.6838 54.293L79.0487 52.6239ZM81.443 41.0612C81.443 45.2951 80.6357 49.1416 79.0463 52.6291L82.6862 54.2879C84.5325 50.2364 85.443 45.8181 85.443 41.0612H81.443ZM79.0487 29.5404C80.6356 32.9968 81.443 36.8271 81.443 41.0612H85.443C85.443 36.3045 84.5326 31.8979 82.6838 27.8713L79.0487 29.5404ZM72.2825 20.502C75.1972 23.022 77.4478 26.0278 79.0463 29.5352L82.6862 27.8764C80.8489 23.8451 78.2491 20.373 74.8987 17.4762L72.2825 20.502ZM61.6262 14.5155C65.8225 15.9494 69.3604 17.9496 72.2749 20.4954L74.9063 17.4828C71.5556 14.556 67.5484 12.312 62.9196 10.7304L61.6262 14.5155ZM58.0628 13.4892C59.2864 13.7765 60.4726 14.1183 61.6218 14.514L62.924 10.7319C61.6438 10.2911 60.328 9.91231 58.977 9.59513L58.0628 13.4892ZM52.0462 2.88036L56.7241 12.4226L60.3157 10.6618L55.6379 1.11964L52.0462 2.88036ZM42.158 4H53.842V0H42.158V4ZM39.3455 12.2807L43.9538 2.88036L40.3622 1.11964L35.7538 10.5199L39.3455 12.2807ZM33.8214 14.514C35.1561 14.0544 36.5408 13.6676 37.9761 13.3543L37.1232 9.44631C35.541 9.7916 34.0061 10.2199 32.5191 10.7319L33.8214 14.514ZM23.2188 20.4954C26.1359 17.9473 29.6591 15.9472 33.8214 14.514L32.5191 10.7319C27.9236 12.3143 23.9354 14.5582 20.5874 17.4828L23.2188 20.4954ZM16.4473 29.5352C18.0458 26.0278 20.2965 23.022 23.2112 20.502L20.595 17.4762C17.2445 20.373 14.6448 23.8451 12.8075 27.8764L16.4473 29.5352ZM14.0506 41.0612C14.0506 36.8271 14.858 32.9968 16.445 29.5404L12.8099 27.8713C10.9611 31.8979 10.0506 36.3045 10.0506 41.0612H14.0506ZM16.4473 52.6291C14.858 49.1416 14.0506 45.2951 14.0506 41.0612H10.0506C10.0506 45.8181 10.9611 50.2364 12.8075 54.2879L16.4473 52.6291ZM17.5426 54.7601C17.1482 54.0704 16.7823 53.3585 16.445 52.6239L12.8099 54.293C13.196 55.134 13.6162 55.9518 14.0705 56.7461L17.5426 54.7601ZM9.79582 72.5578L17.6024 56.6334L14.0108 54.8727L6.20418 70.797L9.79582 72.5578ZM16.9419 69.6774H8V73.6774H16.9419V69.6774ZM18.3304 69.3365C18.0511 69.5241 17.6268 69.6774 16.9419 69.6774V73.6774C18.2441 73.6774 19.4889 73.3769 20.5608 72.6569L18.3304 69.3365ZM18.9653 68.6841C18.9153 68.8065 18.7716 69.0401 18.3304 69.3365L20.5608 72.6569C21.4709 72.0456 22.2412 71.2419 22.6681 70.1973L18.9653 68.6841ZM21.4727 63.3962L19.01 68.5829L22.6234 70.2986L25.0861 65.1118L21.4727 63.3962ZM33.8214 67.5666C30.2475 66.336 27.1461 64.6981 24.4962 62.6667L22.0626 65.8413C25.09 68.162 28.5825 69.9932 32.5191 71.3487L33.8214 67.5666ZM47.7216 69.6774C42.5849 69.6774 37.9546 68.9634 33.8106 67.5629L32.5299 71.3523C37.1437 72.9116 42.2142 73.6774 47.7216 73.6774V69.6774ZM61.6326 67.5629C57.4886 68.9634 52.8582 69.6774 47.7216 69.6774V73.6774C53.229 73.6774 58.2995 72.9116 62.9132 71.3523L61.6326 67.5629ZM71.303 62.4287C68.5854 64.5689 65.3681 66.2865 61.6262 67.5651L62.9196 71.3502C67.0381 69.9429 70.6658 68.022 73.7778 65.5712L71.303 62.4287ZM76.9304 68.5829L74.3471 63.1422L70.7337 64.8578L73.317 70.2986L76.9304 68.5829ZM77.6592 69.3782C77.302 69.1415 77.072 68.8714 76.9194 68.5601L73.328 70.3213C73.8112 71.3067 74.535 72.1064 75.4495 72.7124L77.6592 69.3782ZM79.0581 69.6774C78.2821 69.6774 77.8702 69.518 77.6592 69.3782L75.4496 72.7124C76.5103 73.4154 77.7676 73.6774 79.0581 73.6774V69.6774ZM88 69.6774H79.0581V73.6774H88V69.6774ZM78.1611 56.151L86.2042 72.5578L89.7958 70.797L81.7527 54.3902L78.1611 56.151ZM70.2821 57.1534C71.5491 55.5296 72.5923 53.7285 73.4151 51.7581L69.724 50.2167C69.0317 51.8745 68.1655 53.3638 67.1286 54.6927L70.2821 57.1534ZM73.4177 51.7518C74.6496 48.7736 75.2922 45.4811 75.3784 41.9008L71.3796 41.8046C71.3035 44.9632 70.7399 47.7605 69.7214 50.223L73.4177 51.7518ZM71.5832 42.7331L78.1611 56.151L81.7527 54.3902L75.1748 40.9723L71.5832 42.7331ZM78.2019 54.3114C76.6894 57.0788 74.7199 59.513 72.2825 61.6204L74.8987 64.6463C77.6913 62.2318 79.966 59.4242 81.7119 56.2298L78.2019 54.3114ZM72.2825 61.6204C71.9633 61.8964 71.6368 62.1658 71.303 62.4287L73.7778 65.5713C74.1594 65.2707 74.533 64.9624 74.8987 64.6463L72.2825 61.6204ZM74.3471 63.1422L70.512 55.0652L66.8987 56.7808L70.7337 64.8578L74.3471 63.1422ZM25.2432 55.4551L21.4727 63.3962L25.0861 65.1118L28.8566 57.1708L25.2432 55.4551ZM24.4962 62.6667C24.0557 62.329 23.6274 61.9803 23.2112 61.6204L20.595 64.6463C21.0711 65.0579 21.5603 65.4562 22.0626 65.8413L24.4962 62.6667ZM23.2112 61.6204C20.9057 59.6271 19.0194 57.3419 17.5426 54.76L14.0705 56.7461C15.7764 59.7283 17.9545 62.3633 20.595 64.6463L23.2112 61.6204ZM17.6024 56.6334L23.9027 43.7818L20.311 42.0211L14.0108 54.8727L17.6024 56.6334ZM20.1102 43.0167C20.2921 46.168 20.9229 49.0862 22.0254 51.7518L25.7217 50.223C24.8098 48.0181 24.2628 45.5457 24.1035 42.7862L20.1102 43.0167ZM22.028 51.7581C22.9242 53.9042 24.0816 55.8489 25.5039 57.5818L28.5959 55.0441C27.433 53.6273 26.4728 52.0216 25.7191 50.2167L22.028 51.7581ZM26.9981 51.7592L25.2432 55.4551L28.8566 57.1708L30.6115 53.4748L26.9981 51.7592ZM67.1356 50.617H28.8048V54.617H67.1356V50.617ZM70.512 55.0652L68.9423 51.7592L65.3289 53.4748L66.8987 56.7808L70.512 55.0652ZM67.7676 59.8748C68.683 59.0354 69.5216 58.1281 70.2821 57.1534L67.1286 54.6927C66.5052 55.4916 65.8175 56.236 65.0644 56.9264L67.7676 59.8748ZM58.9824 64.9408C62.3742 63.7743 65.3117 62.0957 67.7574 59.884L65.0745 56.9172C63.0741 58.7262 60.6222 60.1469 57.6815 61.1583L58.9824 64.9408ZM47.7216 66.6411C51.809 66.6411 55.5648 66.0861 58.9674 64.9459L57.6964 61.1532C54.7665 62.1351 51.4487 62.6411 47.7216 62.6411V66.6411ZM36.5263 64.9459C39.9272 66.0856 43.6658 66.6411 47.7216 66.6411V62.6411C44.0301 62.6411 40.7289 62.1356 37.7972 61.1532L36.5263 64.9459ZM27.6968 59.894C30.172 62.0989 33.1214 63.775 36.5113 64.9408L37.8122 61.1583C34.8696 60.1463 32.396 58.7231 30.3575 56.9072L27.6968 59.894ZM25.5039 57.5818C26.1717 58.3954 26.8958 59.1598 27.6756 59.8748L30.3788 56.9264C29.7371 56.3381 29.143 55.7108 28.5959 55.0441L25.5039 57.5818ZM20.0547 41.0612C20.0547 41.7226 20.0731 42.3745 20.1102 43.0167L24.1035 42.7862C24.071 42.2233 24.0547 41.6483 24.0547 41.0612H20.0547ZM22.0254 30.3706C20.6977 33.5807 20.0547 37.1551 20.0547 41.0612H24.0547C24.0547 37.5959 24.6242 34.5529 25.7217 31.8995L22.0254 30.3706ZM27.6857 22.2384C25.2296 24.4594 23.3447 27.181 22.0254 30.3706L25.7217 31.8995C26.8277 29.2256 28.3785 27.0049 30.3686 25.2052L27.6857 22.2384ZM31.8755 19.2184C30.3543 20.0844 28.9567 21.0905 27.6866 22.2376L30.3677 25.2061C31.4162 24.2591 32.5771 23.4217 33.8544 22.6946L31.8755 19.2184ZM23.9027 43.7818L34.6607 21.8369L31.0691 20.0761L20.311 42.0211L23.9027 43.7818Z" fill="black" fill-opacity="0.25" mask="url(#path-1-outside-1)"/>
<path d="M63.9165 45.8097V47.8097H67.0754L65.7244 44.9543L63.9165 45.8097ZM32.0238 45.8097L30.2166 44.9531L28.8626 47.8097H32.0238V45.8097ZM45.4367 17.5109L43.6475 16.6171L43.6382 16.6356L43.6294 16.6543L45.4367 17.5109ZM58.3319 19.031L58.9824 17.1397L58.9824 17.1397L58.3319 19.031ZM50.5037 17.4623L48.6948 18.3153L48.6959 18.3178L50.5037 17.4623ZM49.2519 14.5448L47.3856 15.2639L47.3891 15.2731L47.3928 15.2822L49.2519 14.5448ZM48 10.9467L49.908 10.3469L48.0105 4.31114L46.094 10.3409L48 10.9467ZM37.1618 19.031L36.5113 17.1397L36.5113 17.1397L37.1618 19.031ZM66.416 23.7218L65.0644 25.196L65.0745 25.2052L66.416 23.7218ZM71.5696 31.135L69.7214 31.8995L69.7214 31.8995L71.5696 31.135ZM80.8662 53.4585L82.6838 54.293L82.6862 54.2879L80.8662 53.4585ZM80.8662 28.7058L79.0463 29.5353L79.0487 29.5404L80.8662 28.7058ZM73.5906 18.9891L72.2748 20.4954L72.2825 20.502L73.5906 18.9891ZM62.2729 12.6229L61.6218 14.514L61.6262 14.5155L62.2729 12.6229ZM53.842 2L55.6379 1.11964L55.089 0H53.842V2ZM42.158 2V0H40.911L40.3622 1.11964L42.158 2ZM33.1703 12.6229L32.5191 10.7319L32.5191 10.7319L33.1703 12.6229ZM21.9031 18.9891L23.2112 20.502L23.2188 20.4954L21.9031 18.9891ZM14.6274 28.7058L16.445 29.5404L16.4473 29.5352L14.6274 28.7058ZM14.6274 53.4585L12.8075 54.2879L12.8099 54.293L14.6274 53.4585ZM8 71.6774L6.20418 70.797L4.79214 73.6774H8V71.6774ZM19.4456 70.9967L18.3304 69.3365L18.3304 69.3365L19.4456 70.9967ZM20.8167 69.4407L19.01 68.5829L18.9863 68.6329L18.9653 68.6841L20.8167 69.4407ZM33.1703 69.4576L32.5191 71.3487L32.5299 71.3523L33.1703 69.4576ZM62.2729 69.4576L62.9132 71.3524L62.9196 71.3502L62.2729 69.4576ZM75.1237 69.4407L73.317 70.2986L73.3224 70.31L73.328 70.3213L75.1237 69.4407ZM76.5544 71.0453L75.4495 72.7124L75.4496 72.7124L76.5544 71.0453ZM88 71.6774V73.6774H91.2079L89.7958 70.797L88 71.6774ZM71.5696 50.9874L73.4151 51.7581L73.4177 51.7518L71.5696 50.9874ZM73.5906 63.1333L74.8987 64.6463L74.8987 64.6463L73.5906 63.1333ZM21.9031 63.1333L20.595 64.6463L20.595 64.6463L21.9031 63.1333ZM23.8736 50.9874L22.0254 51.7518L22.028 51.7581L23.8736 50.9874ZM28.8048 52.617V50.617H27.5404L26.9981 51.7592L28.8048 52.617ZM67.1356 52.617L68.9423 51.7592L68.4 50.617H67.1356V52.617ZM66.416 58.4006L67.7575 59.8841L67.7676 59.8748L66.416 58.4006ZM58.3319 63.0496L58.9674 64.9459L58.9749 64.9434L58.9824 64.9408L58.3319 63.0496ZM37.1618 63.0496L36.5113 64.9408L36.5188 64.9434L36.5263 64.9459L37.1618 63.0496ZM29.0272 58.4006L27.6756 59.8748L27.6861 59.8845L27.6968 59.894L29.0272 58.4006ZM23.8736 31.135L25.7217 31.8995L25.7217 31.8995L23.8736 31.135ZM29.0272 23.7218L27.6866 22.2376L27.6857 22.2384L29.0272 23.7218ZM65.7244 44.9543L52.3271 16.6397L48.7114 18.3505L62.1087 46.6651L65.7244 44.9543ZM32.0238 47.8097H63.9165V43.8097H32.0238V47.8097ZM43.6294 16.6543L30.2166 44.9531L33.8311 46.6663L47.2439 18.3675L43.6294 16.6543ZM43.67 16.5719C43.6627 16.5866 43.6552 16.6016 43.6475 16.6171L47.2258 18.4046C47.2345 18.3874 47.2433 18.3696 47.2524 18.3514L43.67 16.5719ZM47.7216 15.3976C46.9171 15.3976 46.1252 15.42 45.3458 15.465L45.5765 19.4583C46.2764 19.4179 46.9914 19.3976 47.7216 19.3976V15.3976ZM50.6617 15.5001C49.7017 15.4316 48.7216 15.3976 47.7216 15.3976V19.3976C48.6309 19.3976 49.5159 19.4285 50.3768 19.49L50.6617 15.5001ZM64.41 19.6992C62.7561 18.6658 60.9443 17.8144 58.9824 17.1397L57.6815 20.9222C59.3802 21.5065 60.914 22.2314 62.2904 23.0915L64.41 19.6992ZM58.9824 17.1397C56.4079 16.2543 53.6309 15.7121 50.6617 15.5001L50.3768 19.49C53.0392 19.6801 55.4706 20.1619 57.6815 20.9222L58.9824 17.1397ZM52.327 16.6395L52.3115 16.6067L48.6959 18.3178L48.7115 18.3506L52.327 16.6395ZM52.3127 16.6093C51.9372 15.813 51.5366 14.8805 51.111 13.8074L47.3928 15.2822C47.8415 16.4135 48.2754 17.4259 48.6948 18.3153L52.3127 16.6093ZM51.1181 13.8257C50.6974 12.7338 50.2938 11.5745 49.908 10.3469L46.0921 11.5465C46.501 12.8474 46.932 14.0868 47.3856 15.2639L51.1181 13.8257ZM46.094 10.3409C45.2869 12.8801 44.4763 14.9494 43.6702 16.5716L47.2522 18.3517C48.1776 16.4896 49.0596 14.2156 49.906 11.5526L46.094 10.3409ZM45.3458 15.465C42.1906 15.6473 39.2419 16.2006 36.5113 17.1397L37.8122 20.9222C40.1597 20.1149 42.744 19.622 45.5765 19.4583L45.3458 15.465ZM36.5113 17.1397C34.8619 17.707 33.3153 18.3988 31.8755 19.2184L33.8544 22.6946C35.0641 22.006 36.382 21.4141 37.8122 20.9222L36.5113 17.1397ZM34.6607 21.8369L39.3455 12.2807L35.7538 10.52L31.0691 20.0761L34.6607 21.8369ZM37.9761 13.3543C40.9956 12.6953 44.2421 12.3613 47.7216 12.3613V8.36127C43.9864 8.36127 40.4517 8.71989 37.1232 9.44631L37.9761 13.3543ZM47.7216 12.3613C51.4309 12.3613 54.8756 12.741 58.0628 13.4892L58.977 9.59513C55.4578 8.76888 51.7036 8.36127 47.7216 8.36127V12.3613ZM56.7241 12.4226L61.5544 22.2757L65.146 20.515L60.3157 10.6618L56.7241 12.4226ZM61.5544 22.2757L71.5832 42.7331L75.1748 40.9723L65.146 20.515L61.5544 22.2757ZM67.7676 22.2476C66.7371 21.3029 65.6172 20.4535 64.41 19.6992L62.2904 23.0915C63.295 23.7192 64.2189 24.4208 65.0644 25.196L67.7676 22.2476ZM73.4177 30.3706C72.0985 27.181 70.2135 24.4594 67.7574 22.2384L65.0745 25.2052C67.0647 27.0049 68.6155 29.2256 69.7214 31.8995L73.4177 30.3706ZM75.3885 41.0612C75.3885 37.1552 74.7455 33.5807 73.4177 30.3706L69.7214 31.8995C70.8189 34.5529 71.3885 37.5959 71.3885 41.0612H75.3885ZM75.3784 41.9008C75.3851 41.6227 75.3885 41.3428 75.3885 41.0612H71.3885C71.3885 41.3112 71.3855 41.559 71.3796 41.8046L75.3784 41.9008ZM79.0487 52.6239C78.784 53.2003 78.5018 53.7628 78.2019 54.3114L81.7119 56.2298C82.0569 55.5985 82.3808 54.9529 82.6838 54.293L79.0487 52.6239ZM81.443 41.0612C81.443 45.2951 80.6357 49.1416 79.0463 52.6291L82.6862 54.2879C84.5325 50.2364 85.443 45.8181 85.443 41.0612H81.443ZM79.0487 29.5404C80.6356 32.9968 81.443 36.8271 81.443 41.0612H85.443C85.443 36.3045 84.5326 31.8979 82.6838 27.8713L79.0487 29.5404ZM72.2825 20.502C75.1972 23.022 77.4478 26.0278 79.0463 29.5352L82.6862 27.8764C80.8489 23.8451 78.2491 20.373 74.8987 17.4762L72.2825 20.502ZM61.6262 14.5155C65.8225 15.9494 69.3604 17.9496 72.2749 20.4954L74.9063 17.4828C71.5556 14.556 67.5484 12.312 62.9196 10.7304L61.6262 14.5155ZM58.0628 13.4892C59.2864 13.7765 60.4726 14.1183 61.6218 14.514L62.924 10.7319C61.6438 10.2911 60.328 9.91231 58.977 9.59513L58.0628 13.4892ZM52.0462 2.88036L56.7241 12.4226L60.3157 10.6618L55.6379 1.11964L52.0462 2.88036ZM42.158 4H53.842V0H42.158V4ZM39.3455 12.2807L43.9538 2.88036L40.3622 1.11964L35.7538 10.5199L39.3455 12.2807ZM33.8214 14.514C35.1561 14.0544 36.5408 13.6676 37.9761 13.3543L37.1232 9.44631C35.541 9.7916 34.0061 10.2199 32.5191 10.7319L33.8214 14.514ZM23.2188 20.4954C26.1359 17.9473 29.6591 15.9472 33.8214 14.514L32.5191 10.7319C27.9236 12.3143 23.9354 14.5582 20.5874 17.4828L23.2188 20.4954ZM16.4473 29.5352C18.0458 26.0278 20.2965 23.022 23.2112 20.502L20.595 17.4762C17.2445 20.373 14.6448 23.8451 12.8075 27.8764L16.4473 29.5352ZM14.0506 41.0612C14.0506 36.8271 14.858 32.9968 16.445 29.5404L12.8099 27.8713C10.9611 31.8979 10.0506 36.3045 10.0506 41.0612H14.0506ZM16.4473 52.6291C14.858 49.1416 14.0506 45.2951 14.0506 41.0612H10.0506C10.0506 45.8181 10.9611 50.2364 12.8075 54.2879L16.4473 52.6291ZM17.5426 54.7601C17.1482 54.0704 16.7823 53.3585 16.445 52.6239L12.8099 54.293C13.196 55.134 13.6162 55.9518 14.0705 56.7461L17.5426 54.7601ZM9.79582 72.5578L17.6024 56.6334L14.0108 54.8727L6.20418 70.797L9.79582 72.5578ZM16.9419 69.6774H8V73.6774H16.9419V69.6774ZM18.3304 69.3365C18.0511 69.5241 17.6268 69.6774 16.9419 69.6774V73.6774C18.2441 73.6774 19.4889 73.3769 20.5608 72.6569L18.3304 69.3365ZM18.9653 68.6841C18.9153 68.8065 18.7716 69.0401 18.3304 69.3365L20.5608 72.6569C21.4709 72.0456 22.2412 71.2419 22.6681 70.1973L18.9653 68.6841ZM21.4727 63.3962L19.01 68.5829L22.6234 70.2986L25.0861 65.1118L21.4727 63.3962ZM33.8214 67.5666C30.2475 66.336 27.1461 64.6981 24.4962 62.6667L22.0626 65.8413C25.09 68.162 28.5825 69.9932 32.5191 71.3487L33.8214 67.5666ZM47.7216 69.6774C42.5849 69.6774 37.9546 68.9634 33.8106 67.5629L32.5299 71.3523C37.1437 72.9116 42.2142 73.6774 47.7216 73.6774V69.6774ZM61.6326 67.5629C57.4886 68.9634 52.8582 69.6774 47.7216 69.6774V73.6774C53.229 73.6774 58.2995 72.9116 62.9132 71.3523L61.6326 67.5629ZM71.303 62.4287C68.5854 64.5689 65.3681 66.2865 61.6262 67.5651L62.9196 71.3502C67.0381 69.9429 70.6658 68.022 73.7778 65.5712L71.303 62.4287ZM76.9304 68.5829L74.3471 63.1422L70.7337 64.8578L73.317 70.2986L76.9304 68.5829ZM77.6592 69.3782C77.302 69.1415 77.072 68.8714 76.9194 68.5601L73.328 70.3213C73.8112 71.3067 74.535 72.1064 75.4495 72.7124L77.6592 69.3782ZM79.0581 69.6774C78.2821 69.6774 77.8702 69.518 77.6592 69.3782L75.4496 72.7124C76.5103 73.4154 77.7676 73.6774 79.0581 73.6774V69.6774ZM88 69.6774H79.0581V73.6774H88V69.6774ZM78.1611 56.151L86.2042 72.5578L89.7958 70.797L81.7527 54.3902L78.1611 56.151ZM70.2821 57.1534C71.5491 55.5296 72.5923 53.7285 73.4151 51.7581L69.724 50.2167C69.0317 51.8745 68.1655 53.3638 67.1286 54.6927L70.2821 57.1534ZM73.4177 51.7518C74.6496 48.7736 75.2922 45.4811 75.3784 41.9008L71.3796 41.8046C71.3035 44.9632 70.7399 47.7605 69.7214 50.223L73.4177 51.7518ZM71.5832 42.7331L78.1611 56.151L81.7527 54.3902L75.1748 40.9723L71.5832 42.7331ZM78.2019 54.3114C76.6894 57.0788 74.7199 59.513 72.2825 61.6204L74.8987 64.6463C77.6913 62.2318 79.966 59.4242 81.7119 56.2298L78.2019 54.3114ZM72.2825 61.6204C71.9633 61.8964 71.6368 62.1658 71.303 62.4287L73.7778 65.5713C74.1594 65.2707 74.533 64.9624 74.8987 64.6463L72.2825 61.6204ZM74.3471 63.1422L70.512 55.0652L66.8987 56.7808L70.7337 64.8578L74.3471 63.1422ZM25.2432 55.4551L21.4727 63.3962L25.0861 65.1118L28.8566 57.1708L25.2432 55.4551ZM24.4962 62.6667C24.0557 62.329 23.6274 61.9803 23.2112 61.6204L20.595 64.6463C21.0711 65.0579 21.5603 65.4562 22.0626 65.8413L24.4962 62.6667ZM23.2112 61.6204C20.9057 59.6271 19.0194 57.3419 17.5426 54.76L14.0705 56.7461C15.7764 59.7283 17.9545 62.3633 20.595 64.6463L23.2112 61.6204ZM17.6024 56.6334L23.9027 43.7818L20.311 42.0211L14.0108 54.8727L17.6024 56.6334ZM20.1102 43.0167C20.2921 46.168 20.9229 49.0862 22.0254 51.7518L25.7217 50.223C24.8098 48.0181 24.2628 45.5457 24.1035 42.7862L20.1102 43.0167ZM22.028 51.7581C22.9242 53.9042 24.0816 55.8489 25.5039 57.5818L28.5959 55.0441C27.433 53.6273 26.4728 52.0216 25.7191 50.2167L22.028 51.7581ZM26.9981 51.7592L25.2432 55.4551L28.8566 57.1708L30.6115 53.4748L26.9981 51.7592ZM67.1356 50.617H28.8048V54.617H67.1356V50.617ZM70.512 55.0652L68.9423 51.7592L65.3289 53.4748L66.8987 56.7808L70.512 55.0652ZM67.7676 59.8748C68.683 59.0354 69.5216 58.1281 70.2821 57.1534L67.1286 54.6927C66.5052 55.4916 65.8175 56.236 65.0644 56.9264L67.7676 59.8748ZM58.9824 64.9408C62.3742 63.7743 65.3117 62.0957 67.7574 59.884L65.0745 56.9172C63.0741 58.7262 60.6222 60.1469 57.6815 61.1583L58.9824 64.9408ZM47.7216 66.6411C51.809 66.6411 55.5648 66.0861 58.9674 64.9459L57.6964 61.1532C54.7665 62.1351 51.4487 62.6411 47.7216 62.6411V66.6411ZM36.5263 64.9459C39.9272 66.0856 43.6658 66.6411 47.7216 66.6411V62.6411C44.0301 62.6411 40.7289 62.1356 37.7972 61.1532L36.5263 64.9459ZM27.6968 59.894C30.172 62.0989 33.1214 63.775 36.5113 64.9408L37.8122 61.1583C34.8696 60.1463 32.396 58.7231 30.3575 56.9072L27.6968 59.894ZM25.5039 57.5818C26.1717 58.3954 26.8958 59.1598 27.6756 59.8748L30.3788 56.9264C29.7371 56.3381 29.143 55.7108 28.5959 55.0441L25.5039 57.5818ZM20.0547 41.0612C20.0547 41.7226 20.0731 42.3745 20.1102 43.0167L24.1035 42.7862C24.071 42.2233 24.0547 41.6483 24.0547 41.0612H20.0547ZM22.0254 30.3706C20.6977 33.5807 20.0547 37.1551 20.0547 41.0612H24.0547C24.0547 37.5959 24.6242 34.5529 25.7217 31.8995L22.0254 30.3706ZM27.6857 22.2384C25.2296 24.4594 23.3447 27.181 22.0254 30.3706L25.7217 31.8995C26.8277 29.2256 28.3785 27.0049 30.3686 25.2052L27.6857 22.2384ZM31.8755 19.2184C30.3543 20.0844 28.9567 21.0905 27.6866 22.2376L30.3677 25.2061C31.4162 24.2591 32.5771 23.4217 33.8544 22.6946L31.8755 19.2184ZM23.9027 43.7818L34.6607 21.8369L31.0691 20.0761L20.311 42.0211L23.9027 43.7818Z" fill="url(#paint0_linear)" mask="url(#path-1-outside-1)"/>
</g>
<defs>
<filter id="filter0_d" x="0.792145" y="0" width="94.4157" height="81.6774" filterUnits="userSpaceOnUse" color-interpolation-filters="sRGB">
<feFlood flood-opacity="0" result="BackgroundImageFix"/>
<feColorMatrix in="SourceAlpha" type="matrix" values="0 0 0 0 0 0 0 0 0 0 0 0 0 0 0 0 0 0 127 0"/>
<feOffset dy="4"/>
<feGaussianBlur stdDeviation="2"/>
<feColorMatrix type="matrix" values="0 0 0 0 0 0 0 0 0 0 0 0 0 0 0 0 0 0 0.25 0"/>
<feBlend mode="normal" in2="BackgroundImageFix" result="effect1_dropShadow"/>
<feBlend mode="normal" in="SourceGraphic" in2="effect1_dropShadow" result="shape"/>
</filter>
<linearGradient id="paint0_linear" x1="48" y1="2" x2="48" y2="71.6774" gradientUnits="userSpaceOnUse">
<stop stop-color="#0A5FDF"/>
<stop offset="1" stop-color="#AE56CD"/>
</linearGradient>
</defs>
</svg>
