<svg width="160" height="171" viewBox="0 0 160 171" fill="none" xmlns="http://www.w3.org/2000/svg">
<g filter="url(#filter0_d)">
<g filter="url(#filter1_dd)">
<path fill-rule="evenodd" clip-rule="evenodd" d="M131.577 126.895C146.002 113.496 155 94.5379 155 73.5196C155 32.9159 121.421 0 80 0C38.5786 0 5 32.9159 5 73.5196C5 91.609 11.6646 108.172 22.7182 120.979C22.9674 122.192 23.6365 123.325 24.6946 124.14C25.2532 124.57 25.8696 124.873 26.5091 125.053C40.1161 138.623 59.0554 147.039 80 147.039C96.0483 147.039 110.919 142.098 123.116 133.683L136.777 157.86C138.231 160.434 141.497 161.342 144.071 159.887C146.644 158.433 147.552 155.168 146.098 152.594L131.577 126.895ZM99.1112 133.877C93.0773 135.701 86.6603 136.684 80 136.684C62.6196 136.684 46.8954 129.989 35.3146 119.124L69.7383 74.4338L99.1112 133.877ZM109.101 129.929L77.095 65.1564C77.9718 64.6 79.1058 64.232 80.4171 64.232C82.8272 64.232 84.6385 65.4753 85.3546 66.8463C85.3818 66.8984 85.4099 66.9501 85.4389 67.0013L117.99 124.61C115.19 126.606 112.219 128.387 109.101 129.929ZM126.3 117.556L94.7978 61.8032C92.0005 56.5337 86.2864 53.5266 80.4171 53.5266C74.6871 53.5266 69.1052 56.3926 66.2405 61.4316L28.0367 111.03C20.0992 100.523 15.4167 87.5366 15.4167 73.5196C15.4167 38.7708 44.1938 10.3549 80 10.3549C115.806 10.3549 144.583 38.7708 144.583 73.5196C144.583 90.6039 137.627 106.157 126.3 117.556Z" fill="url(#paint0_linear)"/>
</g>
</g>
<defs>
<filter id="filter0_d" x="1" y="0" width="158" height="168.581" filterUnits="userSpaceOnUse" color-interpolation-filters="sRGB">
<feFlood flood-opacity="0" result="BackgroundImageFix"/>
<feColorMatrix in="SourceAlpha" type="matrix" values="0 0 0 0 0 0 0 0 0 0 0 0 0 0 0 0 0 0 127 0"/>
<feOffset dy="4"/>
<feGaussianBlur stdDeviation="2"/>
<feColorMatrix type="matrix" values="0 0 0 0 0 0 0 0 0 0 0 0 0 0 0 0 0 0 0.25 0"/>
<feBlend mode="normal" in2="BackgroundImageFix" result="effect1_dropShadow"/>
<feBlend mode="normal" in="SourceGraphic" in2="effect1_dropShadow" result="shape"/>
</filter>
<filter id="filter1_dd" x="0" y="0" width="160" height="170.581" filterUnits="userSpaceOnUse" color-interpolation-filters="sRGB">
<feFlood flood-opacity="0" result="BackgroundImageFix"/>
<feColorMatrix in="SourceAlpha" type="matrix" values="0 0 0 0 0 0 0 0 0 0 0 0 0 0 0 0 0 0 127 0"/>
<feOffset dy="5"/>
<feGaussianBlur stdDeviation="2.5"/>
<feColorMatrix type="matrix" values="0 0 0 0 0 0 0 0 0 0 0 0 0 0 0 0 0 0 0.5 0"/>
<feBlend mode="normal" in2="BackgroundImageFix" result="effect1_dropShadow"/>
<feColorMatrix in="SourceAlpha" type="matrix" values="0 0 0 0 0 0 0 0 0 0 0 0 0 0 0 0 0 0 127 0"/>
<feOffset dy="4"/>
<feGaussianBlur stdDeviation="2"/>
<feColorMatrix type="matrix" values="0 0 0 0 0 0 0 0 0 0 0 0 0 0 0 0 0 0 0.25 0"/>
<feBlend mode="normal" in2="effect1_dropShadow" result="effect2_dropShadow"/>
<feBlend mode="normal" in="SourceGraphic" in2="effect2_dropShadow" result="shape"/>
</filter>
<linearGradient id="paint0_linear" x1="80" y1="0" x2="80" y2="160.581" gradientUnits="userSpaceOnUse">
<stop stop-color="#0711FE" stop-opacity="0.65"/>
<stop offset="1" stop-color="#A449EB"/>
</linearGradient>
</defs>
</svg>
